<mxfile host="app.diagrams.net" agent="Mozilla/5.0 (Windows NT 10.0; Win64; x64) AppleWebKit/537.36 (KHTML, like Gecko) Chrome/131.0.0.0 Safari/537.36" version="25.0.3">
  <diagram name="Page-1" id="vfhK7bxN0PIkhzFeOqWD">
    <mxGraphModel dx="1687" dy="878" grid="1" gridSize="10" guides="1" tooltips="1" connect="1" arrows="1" fold="1" page="1" pageScale="1" pageWidth="850" pageHeight="1100" math="0" shadow="0">
      <root>
        <mxCell id="0" />
        <mxCell id="1" parent="0" />
        <mxCell id="F-aMcXEgsV6WUkbO-tS6-7" style="edgeStyle=orthogonalEdgeStyle;rounded=0;orthogonalLoop=1;jettySize=auto;html=1;entryX=0.5;entryY=0;entryDx=0;entryDy=0;" edge="1" parent="1" source="F-aMcXEgsV6WUkbO-tS6-1" target="F-aMcXEgsV6WUkbO-tS6-4">
          <mxGeometry relative="1" as="geometry" />
        </mxCell>
        <mxCell id="F-aMcXEgsV6WUkbO-tS6-1" value="&lt;font style=&quot;font-size: 24px;&quot;&gt;start&lt;/font&gt;" style="strokeWidth=2;html=1;shape=mxgraph.flowchart.start_1;whiteSpace=wrap;" vertex="1" parent="1">
          <mxGeometry x="396" y="80" width="100" height="60" as="geometry" />
        </mxCell>
        <mxCell id="F-aMcXEgsV6WUkbO-tS6-2" value="&lt;font style=&quot;font-size: 24px;&quot;&gt;end&lt;/font&gt;" style="strokeWidth=2;html=1;shape=mxgraph.flowchart.start_1;whiteSpace=wrap;" vertex="1" parent="1">
          <mxGeometry x="396" y="890" width="100" height="60" as="geometry" />
        </mxCell>
        <mxCell id="F-aMcXEgsV6WUkbO-tS6-8" style="edgeStyle=orthogonalEdgeStyle;rounded=0;orthogonalLoop=1;jettySize=auto;html=1;entryX=0.5;entryY=0;entryDx=0;entryDy=0;" edge="1" parent="1" source="F-aMcXEgsV6WUkbO-tS6-3" target="F-aMcXEgsV6WUkbO-tS6-5">
          <mxGeometry relative="1" as="geometry" />
        </mxCell>
        <mxCell id="F-aMcXEgsV6WUkbO-tS6-3" value="output&lt;div&gt;&quot;Enter 1 character: &quot;&lt;/div&gt;" style="shape=parallelogram;perimeter=parallelogramPerimeter;whiteSpace=wrap;html=1;fixedSize=1;" vertex="1" parent="1">
          <mxGeometry x="530" y="300" width="152" height="30" as="geometry" />
        </mxCell>
        <mxCell id="F-aMcXEgsV6WUkbO-tS6-6" style="edgeStyle=orthogonalEdgeStyle;rounded=0;orthogonalLoop=1;jettySize=auto;html=1;entryX=0.5;entryY=0;entryDx=0;entryDy=0;" edge="1" parent="1" source="F-aMcXEgsV6WUkbO-tS6-4" target="F-aMcXEgsV6WUkbO-tS6-3">
          <mxGeometry relative="1" as="geometry" />
        </mxCell>
        <mxCell id="F-aMcXEgsV6WUkbO-tS6-22" style="edgeStyle=orthogonalEdgeStyle;rounded=0;orthogonalLoop=1;jettySize=auto;html=1;entryX=0.5;entryY=0;entryDx=0;entryDy=0;" edge="1" parent="1" source="F-aMcXEgsV6WUkbO-tS6-4" target="F-aMcXEgsV6WUkbO-tS6-21">
          <mxGeometry relative="1" as="geometry" />
        </mxCell>
        <mxCell id="F-aMcXEgsV6WUkbO-tS6-4" value="while (1)" style="rhombus;whiteSpace=wrap;html=1;" vertex="1" parent="1">
          <mxGeometry x="375" y="210" width="142" height="70" as="geometry" />
        </mxCell>
        <mxCell id="F-aMcXEgsV6WUkbO-tS6-11" style="edgeStyle=orthogonalEdgeStyle;rounded=0;orthogonalLoop=1;jettySize=auto;html=1;entryX=0.5;entryY=0;entryDx=0;entryDy=0;" edge="1" parent="1" source="F-aMcXEgsV6WUkbO-tS6-5" target="F-aMcXEgsV6WUkbO-tS6-10">
          <mxGeometry relative="1" as="geometry" />
        </mxCell>
        <mxCell id="F-aMcXEgsV6WUkbO-tS6-5" value="input ch" style="shape=parallelogram;perimeter=parallelogramPerimeter;whiteSpace=wrap;html=1;fixedSize=1;" vertex="1" parent="1">
          <mxGeometry x="530" y="370" width="152" height="30" as="geometry" />
        </mxCell>
        <mxCell id="F-aMcXEgsV6WUkbO-tS6-18" style="edgeStyle=orthogonalEdgeStyle;rounded=0;orthogonalLoop=1;jettySize=auto;html=1;entryX=0.5;entryY=0;entryDx=0;entryDy=0;" edge="1" parent="1" source="F-aMcXEgsV6WUkbO-tS6-10" target="F-aMcXEgsV6WUkbO-tS6-16">
          <mxGeometry relative="1" as="geometry" />
        </mxCell>
        <mxCell id="F-aMcXEgsV6WUkbO-tS6-10" value="if ( ch == &quot;Y&quot; || ch == &quot;y&quot;)" style="rhombus;whiteSpace=wrap;html=1;" vertex="1" parent="1">
          <mxGeometry x="518.5" y="440" width="175" height="100" as="geometry" />
        </mxCell>
        <mxCell id="F-aMcXEgsV6WUkbO-tS6-15" style="edgeStyle=orthogonalEdgeStyle;rounded=0;orthogonalLoop=1;jettySize=auto;html=1;entryX=1;entryY=0.5;entryDx=0;entryDy=0;entryPerimeter=0;exitX=1;exitY=0.5;exitDx=0;exitDy=0;" edge="1" parent="1" source="F-aMcXEgsV6WUkbO-tS6-10" target="F-aMcXEgsV6WUkbO-tS6-2">
          <mxGeometry relative="1" as="geometry" />
        </mxCell>
        <mxCell id="F-aMcXEgsV6WUkbO-tS6-19" value="" style="edgeStyle=orthogonalEdgeStyle;rounded=0;orthogonalLoop=1;jettySize=auto;html=1;" edge="1" parent="1" source="F-aMcXEgsV6WUkbO-tS6-16" target="F-aMcXEgsV6WUkbO-tS6-17">
          <mxGeometry relative="1" as="geometry" />
        </mxCell>
        <mxCell id="F-aMcXEgsV6WUkbO-tS6-16" value="str[index] = ch" style="rounded=1;whiteSpace=wrap;html=1;absoluteArcSize=1;arcSize=14;strokeWidth=2;" vertex="1" parent="1">
          <mxGeometry x="549" y="610" width="114" height="30" as="geometry" />
        </mxCell>
        <mxCell id="F-aMcXEgsV6WUkbO-tS6-20" style="edgeStyle=orthogonalEdgeStyle;rounded=0;orthogonalLoop=1;jettySize=auto;html=1;entryX=1;entryY=1;entryDx=0;entryDy=0;" edge="1" parent="1" source="F-aMcXEgsV6WUkbO-tS6-17" target="F-aMcXEgsV6WUkbO-tS6-4">
          <mxGeometry relative="1" as="geometry" />
        </mxCell>
        <mxCell id="F-aMcXEgsV6WUkbO-tS6-17" value="index++" style="rounded=1;whiteSpace=wrap;html=1;absoluteArcSize=1;arcSize=14;strokeWidth=2;" vertex="1" parent="1">
          <mxGeometry x="551" y="680" width="110" height="30" as="geometry" />
        </mxCell>
        <mxCell id="F-aMcXEgsV6WUkbO-tS6-24" style="edgeStyle=orthogonalEdgeStyle;rounded=0;orthogonalLoop=1;jettySize=auto;html=1;entryX=0.5;entryY=0;entryDx=0;entryDy=0;" edge="1" parent="1" source="F-aMcXEgsV6WUkbO-tS6-21" target="F-aMcXEgsV6WUkbO-tS6-23">
          <mxGeometry relative="1" as="geometry" />
        </mxCell>
        <mxCell id="F-aMcXEgsV6WUkbO-tS6-21" value="str[index = 0" style="rounded=1;whiteSpace=wrap;html=1;absoluteArcSize=1;arcSize=14;strokeWidth=2;" vertex="1" parent="1">
          <mxGeometry x="391" y="740" width="110" height="30" as="geometry" />
        </mxCell>
        <mxCell id="F-aMcXEgsV6WUkbO-tS6-23" value="output&lt;div&gt;&quot;String = &quot;, str&lt;/div&gt;" style="shape=parallelogram;perimeter=parallelogramPerimeter;whiteSpace=wrap;html=1;fixedSize=1;" vertex="1" parent="1">
          <mxGeometry x="370" y="810" width="152" height="30" as="geometry" />
        </mxCell>
        <mxCell id="F-aMcXEgsV6WUkbO-tS6-25" style="edgeStyle=orthogonalEdgeStyle;rounded=0;orthogonalLoop=1;jettySize=auto;html=1;entryX=0.5;entryY=0;entryDx=0;entryDy=0;entryPerimeter=0;" edge="1" parent="1" source="F-aMcXEgsV6WUkbO-tS6-23" target="F-aMcXEgsV6WUkbO-tS6-2">
          <mxGeometry relative="1" as="geometry" />
        </mxCell>
      </root>
    </mxGraphModel>
  </diagram>
</mxfile>
